# xmcd
#
# Track frame offsets: 
#        150
#        16928
#        29821
#        43543
#        59920
#        73903
#        84304
#        94302
#        104570
#        116249
#        132972
#        145700
#
# Disc length: 2211 seconds
#
# Revision: 0
# Processed by: cddbd v1.5.2PL0 Copyright (c) Steve Scherf et al.
# Submitted via: ExactAudioCopyFreeDBPlugin 1.0
#
DISCID=b508a10c
DTITLE=Various Artist - Valley Country Cares 97 - Country America
DYEAR=1997
DGENRE=Country
TTITLE0=Sweetwater - Guitar Man
TTITLE1=Sheridans Ride - Alabama Fire Breathin' Fiddle Man
TTITLE2=Jeanne Tooley and Nightshade - Joey
TTITLE3=Timothy James Toonen - Can't Shake That Rock
TTITLE4=Lonesome Highway - Love You 'til My Dying Day
TTITLE5=Amber Thomas - Fool Number 1
TTITLE6=Sheridans Ride - Mama Tried
TTITLE7=Amber Thomas - There Stands
TTITLE8=Sweetwater - Lady Luck
TTITLE9=Timothy James Toonen - So Lonesome I Could Cry
TTITLE10=Lonesome Highway - Daddy's Money
TTITLE11=Jeanne Tooley and Nightshade - Meet My Maker
EXTD=
EXTT0=
EXTT1=
EXTT2=
EXTT3=
EXTT4=
EXTT5=
EXTT6=
EXTT7=
EXTT8=
EXTT9=
EXTT10=
EXTT11=
PLAYORDER=
